<?xml version="1.0" standalone="no"?>
<svg xmlns:xlink="http://www.w3.org/1999/xlink" id="wave" style="transform:rotate(180deg); transition: 0.3s" viewBox="0 0 1440 100" version="1.1" xmlns="http://www.w3.org/2000/svg"><defs><linearGradient id="sw-gradient-0" x1="0" x2="0" y1="1" y2="0"><stop stop-color="rgba(255, 249, 234, 1)" offset="0%"/><stop stop-color="rgba(255, 249, 234, 1)" offset="100%"/></linearGradient></defs><path style="transform:translate(0, 0px); opacity:1" fill="url(#sw-gradient-0)" d="M0,20L48,31.7C96,43,192,67,288,78.3C384,90,480,90,576,80C672,70,768,50,864,36.7C960,23,1056,17,1152,15C1248,13,1344,17,1440,20C1536,23,1632,27,1728,25C1824,23,1920,17,2016,25C2112,33,2208,57,2304,60C2400,63,2496,47,2592,33.3C2688,20,2784,10,2880,5C2976,0,3072,0,3168,11.7C3264,23,3360,47,3456,55C3552,63,3648,57,3744,51.7C3840,47,3936,43,4032,38.3C4128,33,4224,27,4320,25C4416,23,4512,27,4608,30C4704,33,4800,37,4896,45C4992,53,5088,67,5184,65C5280,63,5376,47,5472,40C5568,33,5664,37,5760,43.3C5856,50,5952,60,6048,56.7C6144,53,6240,37,6336,40C6432,43,6528,67,6624,73.3C6720,80,6816,70,6864,65L6912,60L6912,100L6864,100C6816,100,6720,100,6624,100C6528,100,6432,100,6336,100C6240,100,6144,100,6048,100C5952,100,5856,100,5760,100C5664,100,5568,100,5472,100C5376,100,5280,100,5184,100C5088,100,4992,100,4896,100C4800,100,4704,100,4608,100C4512,100,4416,100,4320,100C4224,100,4128,100,4032,100C3936,100,3840,100,3744,100C3648,100,3552,100,3456,100C3360,100,3264,100,3168,100C3072,100,2976,100,2880,100C2784,100,2688,100,2592,100C2496,100,2400,100,2304,100C2208,100,2112,100,2016,100C1920,100,1824,100,1728,100C1632,100,1536,100,1440,100C1344,100,1248,100,1152,100C1056,100,960,100,864,100C768,100,672,100,576,100C480,100,384,100,288,100C192,100,96,100,48,100L0,100Z"/></svg>