<?xml version="1.0" standalone="no"?>
<svg xmlns:xlink="http://www.w3.org/1999/xlink" id="wave" style="transform:rotate(0deg); transition: 0.3s" viewBox="0 0 1440 100" version="1.1" xmlns="http://www.w3.org/2000/svg"><defs><linearGradient id="sw-gradient-0" x1="0" x2="0" y1="1" y2="0"><stop stop-color="rgba(255, 249, 234, 1)" offset="0%"/><stop stop-color="rgba(255, 249, 234, 1)" offset="100%"/></linearGradient></defs><path style="transform:translate(0, 0px); opacity:1" fill="url(#sw-gradient-0)" d="M0,80L48,66.7C96,53,192,27,288,18.3C384,10,480,20,576,30C672,40,768,50,864,56.7C960,63,1056,67,1152,70C1248,73,1344,77,1440,80C1536,83,1632,87,1728,81.7C1824,77,1920,63,2016,58.3C2112,53,2208,57,2304,48.3C2400,40,2496,20,2592,15C2688,10,2784,20,2880,23.3C2976,27,3072,23,3168,23.3C3264,23,3360,27,3456,35C3552,43,3648,57,3744,55C3840,53,3936,37,4032,36.7C4128,37,4224,53,4320,55C4416,57,4512,43,4608,36.7C4704,30,4800,30,4896,35C4992,40,5088,50,5184,50C5280,50,5376,40,5472,41.7C5568,43,5664,57,5760,63.3C5856,70,5952,70,6048,73.3C6144,77,6240,83,6336,83.3C6432,83,6528,77,6624,61.7C6720,47,6816,23,6864,11.7L6912,0L6912,100L6864,100C6816,100,6720,100,6624,100C6528,100,6432,100,6336,100C6240,100,6144,100,6048,100C5952,100,5856,100,5760,100C5664,100,5568,100,5472,100C5376,100,5280,100,5184,100C5088,100,4992,100,4896,100C4800,100,4704,100,4608,100C4512,100,4416,100,4320,100C4224,100,4128,100,4032,100C3936,100,3840,100,3744,100C3648,100,3552,100,3456,100C3360,100,3264,100,3168,100C3072,100,2976,100,2880,100C2784,100,2688,100,2592,100C2496,100,2400,100,2304,100C2208,100,2112,100,2016,100C1920,100,1824,100,1728,100C1632,100,1536,100,1440,100C1344,100,1248,100,1152,100C1056,100,960,100,864,100C768,100,672,100,576,100C480,100,384,100,288,100C192,100,96,100,48,100L0,100Z"/></svg>